<svg xmlns="http://www.w3.org/2000/svg" xmlns:xlink="http://www.w3.org/1999/xlink" width="3150" height="4320" viewBox="0 0 3150 4320">
    <defs>
        <linearGradient id="b" x1="50%" x2="50%" y1="0%" y2="100%">
            <stop offset="0%" stop-color="#FFF"/>
            <stop offset="100%" stop-color="#FFF" stop-opacity="0"/>
        </linearGradient>
        <path id="a" d="M2084.78 4370c-306.565 0-529.852-74.232-670.13-222.697-140.144-148.397-210.283-308.45-210.283-479.955 0-62.712 12.195-115.472 36.653-158.349 23.862-42.305 58.508-77.357 100.324-101.498 42.38-24.745 94.53-37.083 156.516-37.083 61.987 0 114.069 12.338 156.516 37.083 42.38 24.744 75.8 58.622 100.257 101.498 24.458 42.877 36.653 95.637 36.653 158.35 0 75.868-17.922 137.694-53.767 185.546-35.912 47.852-78.292 79.14-127.207 94.069 42.447 59.304 109.285 101.362 200.58 126.106 91.296 26.449 182.592 39.605 273.887 39.605 127.14 0 242.085-34.629 344.835-103.885 102.682-69.324 178.548-171.573 227.464-306.814 48.915-135.24 73.373-288.681 73.373-460.254 0-186.365-26.95-345.6-80.717-477.5-52.217-133.606-129.633-232.582-232.383-296.93-99.577-63.399-214.918-96.85-332.572-96.455-78.292 0-176.055 32.992-293.493 98.976l-215.202 108.861v-108.86l968.475-1306.396H1204.367v1355.816c0 112.2 24.457 204.565 73.373 277.161 48.916 72.597 123.906 108.86 225.038 108.86 78.158 0 153.215-26.38 224.972-79.208 72.217-53.28 135.039-118.498 185.825-192.909 6.535-14.928 14.688-25.63 24.458-32.242 8.787-7.85 20.079-12.23 31.801-12.338 17.923 0 39.079 9.066 63.604 27.266 22.84 26.312 34.228 56.85 34.228 91.479a636.739 636.739 0 0 1-12.263 69.324c-55.384 125.357-132.059 220.993-229.89 286.978-95.242 65.182-207.75 99.685-322.735 98.976-290.259 0-490.84-57.736-601.674-173.14-110.835-115.541-166.286-272.254-166.286-470.14V1163.419H50V911.001h684.818V337.046L578.3 178.56V50h454.861l171.137 89.024v771.977l1770.662-4.908 176.123 178.117L2065.24 2182.768a721.159 721.159 0 0 1 205.432-49.488c117.37 0 249.429 37.968 396.175 113.836 148.364 74.233 262.5 176.55 342.342 306.746 79.909 128.697 131.25 252.417 154.09 371.162 24.458 118.813 36.721 224.333 36.721 316.698 0 211.177-44.064 407.426-132.059 588.951-88.061 181.389-221.737 316.63-401.094 405.722C2487.49 4325.488 2293.445 4370 2084.78 4370z"/>
    </defs>
    <g fill="none" fill-rule="evenodd" opacity=".1" transform="translate(-50 -50)">
        <use fill="#2C7DF7" xlink:href="#a"/>
        <use fill="url(#b)" xlink:href="#a"/>
    </g>
</svg>
